<?xml version="1.0" encoding="UTF-8"?>
<svg id="Layer_1" xmlns="http://www.w3.org/2000/svg" version="1.1" viewBox="0 0 163 228">
  <!-- Generator: Adobe Illustrator 30.0.0, SVG Export Plug-In . SVG Version: 2.1.1 Build 123)  -->
  <defs>
    <style>
      .st0 {
        fill: #020202;
        fill-rule: evenodd;
      }
    </style>
  </defs>
  <g id="BT-Logowhite-brandmark-2">
    <g id="BT-Logo">
      <path id="Fill-152" class="st0" d="M156.44,71.55c4.32-6.37,5.53-11.61,4.43-19.23-8.62-1.18-15.68,2.25-20.07,9.76-4.04,6.9,0,20.4.12,20.5.03.05,11.36-4.89,15.53-11.04M152.7,18.48c-1.54-.48-6.6-1.89-10.43-.51-4.43,1.6-8.21,8.75-8.35,8.74.14-.14,7.14,1.95,11.14.25,4.1-1.74,7.16-6.95,7.63-8.48M133.9,11.33s-12.68-.72-18.49,4.01c-5.81,4.74-9.3,19.34-9.3,19.34,0,0,14.35-2.38,19.83-5.85,5.48-3.48,7.95-17.5,7.95-17.5M93.93,45.65c4.35-24.39,15.22-43.23,15.22-43.23l-13.4-1.82s-5.89,11.6-11.58,27.4c-1.89-3.12-5.9-6.91-9.53-11.45-4.51-5.64-4.99-8.11-11.2-14.74l-18.25-.84s16.72,20.93,25.58,35.52c2.46,4.05,4.28,6.2,6.08,10.51-1.28,6.88-2.32,13.49-3.13,17.68-3.2,16.5-5.57,28.47-7.38,41.19-6.95-2.77-13.96-4.24-22.98-6.64-15.53-4.14-24.4-6.15-40.19-9.15l-.61,12.79c3.07.58,12.18.61,21.94,3.64,5.69,1.77,8.81,3.19,14.01,6.12-7.02,23.81-10.27,40.71-14.01,62.09-3.28,18.78-4.71,40.59-4.71,40.59l17.5,7.49s1.42-29.41,3.64-48.08c1.68-14.08,1.42-22.36,5.46-35.95,2.53-8.52,4.62-12.63,8.36-21.2,0,0,7.46,3.57,10.55,5.37-.95,18.34-2.81,36.99-3.69,62.14-.53,15.18.6,39.91.6,39.91,0,0,9.9,2.3,17,2.55,5.05.18,17.74-1.05,17.74-1.05,0,0-7.68-39.73-8.54-77.35,2.61-1.26,6.16-3.37,10.36-4.85,3.48-1.23,5.51-.95,9.15-2.43-.16,4.68.8,27.25.92,40.61.14,14.91,5.75,43.61,5.75,43.61l21.94-7.53s-.61-11.13-.61-18.25c0-14.05.03-22.1,2.43-35.95,2.27-13.11,7.34-28.19,9.1-32.86,6.04-.97,10.97-2.43,10.97-2.43l.29-12.33c-14.32.94-22.07,1.79-35.88,4.72-14.27,3.03-23.29,4.12-35.04,8.83-1.07-20.4,1.4-58.15,6.12-84.64M120.73,157.08c.06-6.85.42-16.47.77-20.12,3.34-.95,7.06-1.84,10.82-2.64-.96,3.7-3.56,14.74-4.91,21.55-2.73,13.83-1.82,24.93-4.25,38.32-2.09-12.75-2.54-24.19-2.43-37.11M82.96,18.25s5.45-5.94,4.85-10.36c-.5-3.71-5.46-7.89-5.46-7.89,0,0-5.32,4.55-5.51,8.49-.22,4.49,6.12,9.76,6.12,9.76M48.03,16.16c-5.93,9.71-6.65,18.55-2.35,29.09,4.04,9.92,20.18,18.63,20.18,18.63,0,0,2.3-17.31-1.55-27.23-3.7-9.51-7.84-14.74-16.27-20.5M41.84,54.8s-1.82-14.76-7.62-22.54c-5.8-7.78-11.1-10.62-20.16-12.61-2.42,9.03-2.21,15.08,4.34,23.58,8.36,10.87,23.44,11.57,23.44,11.57M38.11,29.5s3.5-7.69,2.23-12.46c-1.42-5.37-4.49-8.62-9.76-10.37-3.07,4.58-3.54,8.92-1.52,14.05,1.8,4.58,9.05,8.78,9.05,8.78M18.98,47.99c-4.08-4.48-7.68-6.43-13.66-7.39-.98,6.81.38,11.68,4.75,16.99,4.19,5.09,14.98,7.87,14.98,7.87,0,0-1.21-12.14-6.07-17.47M33.62,59.66c-2.82,9.89-3.92,16.04,4.31,26.01,8.23,9.97,24.2,13.26,24.2,13.26,0,0,1.46-22.55-6.49-31.07-7.94-8.52-12.88-8.8-22.02-8.2M32.81,88.56s-4.67-13.82-11.76-18.73c-6.33-4.39-11.5-5.7-19.15-4.84.03,7.43,2.13,12.35,7.46,17.52,6.78,6.57,23.45,6.06,23.45,6.06M.22,127.44s8.17,8.11,18.47,5.22c14.93-4.19,15.81-16.04,15.81-16.04,0,0-8.63-6.1-17.93-4.59C7.28,113.55.22,127.44.22,127.44M139.52,92.66c-5.66,6.09-7.62,20.19-7.61,19.91.28,0,14.62-.95,21.07-6.66,6.77-5.99,9.46-12.25,9.15-21.28-9.29-1.1-13.4-1.87-22.61,8.03M103.08,89.7c-7.94,9.18-8.58,23.55-7.41,30.22,2.53.23,22.79-6.2,31.73-17.03,8.55-10.37,7.93-14.38,7.94-24.37-13.08-2.51-23.55,1.12-32.26,11.18M107.53,47.1c-8.14,9.92-7.53,32.03-7.53,32.03,0,0,21.81-5.19,29.82-15.59,7.4-9.61,9.64-18.06,7.95-30.07-12.92-.48-22.03,3.63-30.23,13.63"/>
    </g>
  </g>
</svg>