<?xml version="1.0" encoding="UTF-8"?>
<svg id="Layer_1" xmlns="http://www.w3.org/2000/svg" version="1.1" viewBox="0 0 625 625">
  <!-- Generator: Adobe Illustrator 29.8.1, SVG Export Plug-In . SVG Version: 2.1.1 Build 2)  -->
  <defs>
    <style>
      .st0 {
        fill: #070707;
      }

      .st1 {
        fill: #e8febf;
      }
    </style>
  </defs>
  <g>
    <g>
      <path class="st1" d="M343.74,196.73c5.99,3.35,7.05,11.61,7.85,17.85.74,5.74.16,10.2,0,11.42-3.42,25.29-6.43,37.12-6.43,37.12-8.62,33.88-11.69,42.74-6.43,48.55.27.3,3.65,3.93,8.57,4.28,6.16.45,8.42-4.7,16.42-8.57,8.97-4.33,17.7-3.45,23.56-2.86,8.02.81,14.14,1.43,17.85,6.43,3.94,5.3-5.55,19.48-10.71,20.7-8.31,1.98-37.16,17.78-47.12,28.56-13.06,14.12-30.58,30.5-38.85,44.21-5.82,9.65-16.39,18.19-20.96,22.57-14.15,13.57-58.46,9.46-67.27-13.24-5.21-13.43,6.91-19.11,8.57-54.26.58-12.24-.68-16.22.71-32.13,1.75-20.04,7.98-25.87,13.92-31.5,8.27-7.84,10.94-6.27,34.63-14.91,9.98-3.64,14.97-5.46,19.28-9.28,9.38-8.33,13.04-22.8,19.99-51.4,2.48-10.2,3.99-17.86,10.71-22.13,4.28-2.72,10.82-4.15,15.71-1.43v.02h0Z"/>
      <g>
        <path d="M313.32,390.57c-3.63,3.76-7.01,7.79-10.88,11.34-3.73,3.42-7.97,5.72-11.55,9.83-3.24,3.73-4.55,7.42-7.31,11.25-2.01.83.29-3.47.55-3.95,7.38-13.23,25.55-24.34,36.02-36.54,4.44-5.16,7.19-11.44,11.29-16.83,12.89-16.93,33.35-23.91,50.28-35.77l.59-1.14c-1.12-4.73,2.28-8.45,5.97-10.85,1.93-1.25,5.88-3.45,8.06-2.91.28-1.3-.14-.9-.72-1.27-4.82-3.04-15.75-2.52-21.25-1.29-11.64,2.6-27.34,18.29-38.93,15.36-6.67-1.68-6.1-14.93-6.18-19.95-.16-9.78.74-20.79,2.76-30.45,2.48-11.84,5.87-22.98,8-35.31,1.56-9.03,2.12-18.67,1.19-27.77-1.16.54-1.44,2.98-2.4,3.77-1.15.94-6.97,1.02-8.58.74-1.75-.3-.75-2.07-2.51-1.7-2.28,16.84-9.2,32.44-14.23,48.5-1.28,4.09-3.91,18.79-6.58,20.98-.75.61-1.47.33-1.13-.56.74-1.92,3.66-4.14,2.81-7.04-4.23-.51-7.11.5-10.64,2.58-3.06,1.8-6.43,5.82-9.38,6.93-2.01.75-3.75.36-5.5,1.25-2.47,1.25-4.56,5.51-6.83,7.24-2.64-.62.83-.91.29-2.24-3.72,1.4-8.93,1.99-12.48,3.54-1.71.75-2.65,2.3-4.39,2.64,1.45-2.22,3.39-3.93,6.18-3.94.13-1-1.27-.55-1.89-.49-4.09.42-10.75,2.94-13.44,6.05-3.64,4.21-6.87,8.2-8.58,13.91-3.29,10.94-2.95,22.69-4.21,33.97-1.25-.31-.76-.81-.76-1.55.18-18.11,1.14-45.16,21.13-52.05,6.68-2.3,12.91-.32,19.7-3.36,1.82-.82,2.38-2.81,3.93-3.94,2.32-1.69,4.63-1.25,7.21-2.36,3.35-1.43,6.42-5.56,10.08-7.36s6.78-1.68,10.44-2.5c.48-2.68,1.67-5.14,2.38-7.74,3.26-11.84,8.02-23.55,11.22-35.47,1.48-5.49,4.12-23.56,6.9-26.85,3.25-3.85,8.94-3.3,10.97,1.43,3.13,7.26,1.49,26.95,0,34.8-5.03,26.5-13.83,47.04-9.78,76.8.31,2.32,2.14,5.41,4.33,6.38,3,1.32,8.4-.13,11.31-1.33,7.18-2.96,13.88-8.39,21.05-11.58,7.17-3.19,20.79-5.18,27.78-1.13,9.08,5.25,2.8,10.57-3.58,14.08-3.09,1.7-6.24,1.53-8.59,2.66-.92.44-2.02,2.17-3.22,2.97-15.85,10.58-33.62,16.87-46.29,31.9-4.91,5.83-8.17,13.32-12.97,19.1-2.25,2.71-5.35,4.84-7.67,7.24l.03-.02h0Z"/>
        <path d="M295.77,311.66c-.78,3.87-2.84,8.04,0,11.53.12.39-.58.4-.83.27-2.51-1.27-1.26-8.28-.43-10.57.32-.9-.3-1.51,1.27-1.23h-.01Z"/>
      </g>
    </g>
    <path class="st0" d="M312.5,418.18h0c0-19.25-15.6-34.85-34.85-34.85h0c19.25,0,34.85-15.6,34.85-34.85h0c0,19.25,15.6,34.85,34.85,34.85h0c-19.25,0-34.85,15.6-34.85,34.85Z"/>
  </g>
  <g>
    <path d="M170.9,204.75c-2.21.78-4.51.88-6.92.31-2.4-.57-4.76-1.82-7.08-3.73-2.34-1.94-4.02-4.03-5.04-6.28-1.03-2.25-1.35-4.54-.98-6.85.38-2.32,1.43-4.53,3.18-6.63,1.76-2.12,3.74-3.59,5.95-4.39,2.21-.8,4.51-.9,6.92-.31,2.4.59,4.76,1.84,7.08,3.76,2.32,1.92,3.99,4,5.01,6.26,1.03,2.25,1.36,4.54.99,6.87-.36,2.33-1.43,4.55-3.19,6.68-1.74,2.11-3.72,3.55-5.93,4.33ZM176.22,191.13c-.49-2.5-2.13-4.91-4.93-7.23-2.8-2.32-5.46-3.49-7.99-3.5-2.52-.01-4.72,1.1-6.59,3.35-1.83,2.21-2.5,4.55-2.02,7.03.48,2.48,2.13,4.88,4.93,7.2,2.8,2.32,5.47,3.49,8,3.52s4.72-1.07,6.55-3.28c1.85-2.23,2.53-4.59,2.04-7.09Z"/>
    <path d="M188.16,148.81l18.81,21.95-2.46,2.11-26.74-5.81,14.19,16.56-3.02,2.59-18.81-21.95,2.43-2.08,26.8,5.82-14.22-16.59,3.02-2.59Z"/>
    <path d="M196.9,142.73l3.58-2.24,13.49,21.5,11.88-7.45,1.87,2.99-15.45,9.7-15.36-24.48Z"/>
    <path d="M231.21,140.94l5.91,12.13-3.8,1.85-5.91-12.13-17.11-8.82,4.35-2.12,13.15,6.87,2.7-14.59,4.31-2.1-3.61,18.9Z"/>
    <path d="M263.54,112.91l8.42,27.65-3.1.94-22.16-16.05,6.35,20.87-3.8,1.16-8.42-27.65,3.06-.93,22.21,16.08-6.37-20.91,3.8-1.16Z"/>
    <path d="M298.04,107.64l3.59,28.68-3.21.4-19.1-19.59,2.71,21.64-3.95.49-3.59-28.68,3.17-.4,19.15,19.63-2.71-21.68,3.95-.49Z"/>
    <path d="M308.72,107.36l18.77.48-.09,3.4-14.63-.38-.23,9.1,13.81.35-.09,3.44-13.81-.35-.24,9.55,14.63.38-.09,3.4-18.77-.48.74-28.9Z"/>
    <path d="M349.41,110.56l9.84,2.41c4.54,1.11,7.76,3.2,9.66,6.25,1.9,3.05,2.3,6.81,1.21,11.27-1.09,4.46-3.19,7.61-6.29,9.46-3.1,1.84-6.92,2.21-11.46,1.1l-9.84-2.41,6.88-28.07ZM352.96,137.56c6.9,1.69,11.22-1.01,12.96-8.1,1.73-7.06-.86-11.44-7.76-13.13l-5.5-1.35-5.2,21.23,5.5,1.35Z"/>
    <path d="M382.79,119.86l17.33,7.23-1.31,3.14-13.51-5.63-3.5,8.4,12.75,5.32-1.33,3.18-12.75-5.32-3.68,8.82,13.51,5.63-1.31,3.14-17.33-7.23,11.13-26.68Z"/>
    <path d="M396.12,157.01c-1.31-1.47-2.24-3.05-2.79-4.75l2.89-1.91c.64,1.71,1.48,3.17,2.53,4.38,1.05,1.21,2.38,2.29,4.01,3.25,1.86,1.1,3.5,1.6,4.92,1.5,1.42-.09,2.51-.78,3.26-2.05.64-1.08.65-2.17.02-3.25s-1.84-2.48-3.63-4.17c-1.73-1.59-3.06-3.03-4.01-4.33-.95-1.29-1.51-2.62-1.68-3.97-.17-1.35.17-2.75,1.02-4.18.86-1.46,2-2.51,3.42-3.17,1.42-.65,3.02-.88,4.8-.66,1.78.21,3.6.87,5.46,1.97,1.74,1.03,3.22,2.26,4.45,3.71,1.23,1.44,2.04,2.95,2.45,4.52l-2.86,1.93c-.6-1.62-1.37-3.02-2.3-4.2-.94-1.18-2.09-2.17-3.46-2.97-1.79-1.06-3.41-1.52-4.88-1.38s-2.58.86-3.36,2.18c-.67,1.13-.73,2.25-.17,3.35.55,1.11,1.68,2.48,3.38,4.12,1.79,1.7,3.18,3.17,4.16,4.44.98,1.26,1.6,2.56,1.84,3.9.24,1.33-.05,2.71-.89,4.12-.85,1.43-1.98,2.47-3.38,3.1-1.41.63-2.99.82-4.76.56s-3.63-.96-5.59-2.11c-1.93-1.14-3.55-2.45-4.85-3.92Z"/>
    <path d="M431.87,146.27l3.39,2.52-17.22,23.21-3.39-2.52,17.22-23.21Z"/>
    <path d="M451.05,180.65l-9.3,9.94c-1.33-.38-2.8-1.07-4.41-2.07s-3.11-2.16-4.51-3.46c-2.13-2-3.58-4.16-4.33-6.47-.75-2.32-.78-4.66-.09-7.05.7-2.38,2.1-4.7,4.21-6.96,2.07-2.21,4.28-3.75,6.62-4.61,2.34-.86,4.67-1,7-.43,2.33.57,4.53,1.83,6.61,3.77,1.5,1.4,2.67,2.91,3.51,4.53.85,1.62,1.32,3.25,1.41,4.91l-3.24,1.24c-.23-1.75-.67-3.27-1.31-4.54s-1.55-2.46-2.73-3.57c-2.28-2.13-4.67-3.06-7.2-2.78-2.53.28-5.04,1.75-7.54,4.42-2.56,2.73-3.88,5.38-3.96,7.95-.08,2.56,1.07,4.96,3.44,7.18,1.56,1.46,3.31,2.67,5.25,3.63l5.55-5.93-4.91-4.6,2.19-2.33,7.72,7.23Z"/>
    <path d="M481.94,197.57l-22.97,17.55-1.97-2.57,7.3-26.37-17.33,13.24-2.41-3.16,22.97-17.55,1.94,2.54-7.31,26.43,17.37-13.27,2.41,3.16Z"/>
    <path d="M475.89,244.37c.44-2.3,1.51-4.34,3.21-6.13s3.97-3.2,6.79-4.23c2.85-1.04,5.5-1.44,7.97-1.19,2.46.25,4.6,1.12,6.41,2.61,1.81,1.49,3.19,3.52,4.12,6.09.95,2.59,1.21,5.04.79,7.35-.42,2.31-1.49,4.35-3.21,6.13-1.72,1.78-3.99,3.19-6.82,4.22-2.83,1.03-5.47,1.42-7.93,1.17-2.46-.25-4.61-1.12-6.43-2.6s-3.21-3.53-4.16-6.12c-.94-2.57-1.19-5-.75-7.3ZM484.96,255.82c2.4.84,5.31.63,8.72-.61s5.76-2.96,7.05-5.13,1.43-4.63.42-7.38c-.99-2.7-2.67-4.46-5.05-5.29-2.38-.83-5.28-.62-8.7.63-3.42,1.25-5.77,2.96-7.07,5.14s-1.46,4.61-.47,7.31c1,2.72,2.69,4.5,5.1,5.34Z"/>
    <path d="M515.39,287.58l-28.46,5.05-.57-3.19,18.59-20.08-21.48,3.81-.69-3.92,28.46-5.05.56,3.15-18.62,20.13,21.52-3.82.69,3.92Z"/>
    <path d="M516.17,298.18l.12,4.22-25.37.72.4,14.02-3.52.1-.52-18.24,28.89-.83Z"/>
    <path d="M500.36,328.64l-13.45-1.02.32-4.21,13.45,1.02,16.24-10.33-.36,4.82-12.56,7.89,11.23,9.69-.36,4.78-14.5-12.65Z"/>
    <path d="M508.34,370.65l-28.14-6.61.74-3.15,25.01-11.1-21.23-4.99.91-3.87,28.14,6.61-.73,3.11-25.06,11.13,21.27,5-.91,3.87Z"/>
    <path d="M495.53,403.14l-26.59-11.34,1.27-2.98,26.55-6.64-20.06-8.56,1.56-3.66,26.59,11.34-1.25,2.94-26.6,6.66,20.1,8.57-1.56,3.66Z"/>
    <path d="M490.33,412.58l-9.93,15.94-2.89-1.8,7.74-12.42-7.72-4.82-7.31,11.73-2.92-1.82,7.31-11.73-8.11-5.05-7.74,12.42-2.89-1.8,9.93-15.94,24.53,15.29Z"/>
    <path d="M466.89,446.03l-7.06,7.26c-3.26,3.35-6.69,5.07-10.28,5.16-3.59.09-7.04-1.47-10.33-4.67-3.29-3.2-4.95-6.61-4.97-10.21s1.6-7.08,4.86-10.43l7.06-7.26,20.71,20.16ZM441.82,435.41c-4.96,5.09-4.82,10.18.41,15.27,5.21,5.07,10.29,5.06,15.25-.03l3.95-4.05-15.66-15.24-3.95,4.05Z"/>
    <path d="M442.08,470.03l-14.97,11.34-2.05-2.71,11.67-8.84-5.5-7.25-11.01,8.34-2.08-2.75,11.01-8.34-5.77-7.62-11.67,8.84-2.05-2.71,14.97-11.34,17.45,23.04Z"/>
    <path d="M403.26,462.87c1.93-.39,3.76-.4,5.51-.03l.2,3.46c-1.8-.31-3.49-.31-5.06-.01-1.57.3-3.18.91-4.82,1.83-1.88,1.05-3.14,2.22-3.77,3.5-.63,1.28-.59,2.56.13,3.85.61,1.1,1.55,1.65,2.8,1.65,1.25,0,3.06-.35,5.43-1.04,2.24-.69,4.16-1.13,5.76-1.3,1.59-.17,3.02,0,4.27.54,1.26.53,2.29,1.53,3.1,2.98.83,1.48,1.17,3,1.02,4.55s-.76,3.05-1.84,4.48c-1.08,1.43-2.56,2.68-4.44,3.73-1.76.99-3.58,1.65-5.44,1.99-1.86.34-3.58.29-5.14-.15l-.23-3.44c1.7.3,3.3.34,4.79.12,1.49-.22,2.93-.72,4.31-1.5,1.81-1.01,3.03-2.19,3.64-3.52.62-1.33.55-2.67-.2-4-.64-1.15-1.58-1.76-2.81-1.83-1.23-.08-2.99.21-5.26.85-2.37.7-4.34,1.15-5.93,1.37s-3.02.09-4.29-.37c-1.28-.46-2.31-1.41-3.12-2.84-.81-1.46-1.14-2.95-.98-4.48.16-1.53.8-3,1.9-4.4,1.11-1.4,2.65-2.66,4.63-3.77,1.96-1.09,3.9-1.84,5.83-2.23Z"/>
    <path d="M394.56,499.19l-3.88,1.67-11.4-26.56,3.88-1.67,11.4,26.56Z"/>
    <path d="M355.15,498.42l-3.87-13.05c1-.95,2.34-1.87,4.02-2.75,1.68-.88,3.43-1.6,5.27-2.14,2.8-.83,5.39-.99,7.77-.47,2.38.52,4.42,1.68,6.12,3.49,1.71,1.8,3,4.19,3.87,7.15.86,2.91,1.07,5.59.63,8.04-.44,2.45-1.5,4.54-3.17,6.26-1.67,1.72-3.87,2.99-6.59,3.79-1.96.58-3.86.83-5.68.74s-3.47-.51-4.95-1.27l.57-3.42c1.63.69,3.16,1.07,4.58,1.17s2.91-.09,4.46-.55c2.99-.89,5-2.49,6.04-4.81,1.04-2.32,1.04-5.23,0-8.74-1.07-3.59-2.68-6.07-4.86-7.43-2.17-1.37-4.82-1.59-7.94-.66-2.04.61-3.97,1.51-5.78,2.7l2.31,7.78,6.45-1.91.91,3.07-10.14,3.01Z"/>
    <path d="M324.86,516.43l-3.43-28.7,3.22-.38,19,19.69-2.59-21.66,3.95-.47,3.43,28.7-3.17.38-19.04-19.73,2.6,21.7-3.95.47Z"/>
    <path d="M287.61,487.54c1.77,1.54,3,3.49,3.68,5.86.69,2.37.77,5.04.24,8-.53,2.99-1.52,5.48-2.98,7.49-1.45,2-3.28,3.41-5.48,4.23-2.2.82-4.65.99-7.34.51-2.72-.48-4.97-1.49-6.75-3.01-1.78-1.53-3.01-3.48-3.68-5.86-.67-2.38-.75-5.05-.22-8.01.53-2.96,1.52-5.44,2.97-7.45,1.45-2,3.28-3.42,5.48-4.25,2.2-.83,4.66-1,7.38-.52,2.69.48,4.92,1.49,6.69,3.02ZM273.14,489.63c-1.93,1.66-3.22,4.27-3.85,7.85s-.34,6.47.89,8.67c1.23,2.2,3.29,3.56,6.17,4.08,2.83.5,5.2-.07,7.11-1.71,1.92-1.64,3.19-4.26,3.83-7.83s.34-6.48-.89-8.7c-1.23-2.22-3.26-3.58-6.08-4.08-2.85-.51-5.24.07-7.18,1.72Z"/>
    <path d="M230.37,499.97l9.94-27.14,3.04,1.11,8.01,26.17,7.5-20.48,3.73,1.37-9.94,27.14-3-1.1-8.03-26.22-7.52,20.52-3.73-1.37Z"/>
    <path d="M220.77,495.27l-3.7-2.03,12.2-22.25-12.3-6.74,1.69-3.09,16,8.77-13.89,25.35Z"/>
    <path d="M202.49,466.19l7.71-11.07,3.47,2.41-7.71,11.07.64,19.23-3.97-2.76-.42-14.83-14.05,4.75-3.94-2.74,18.26-6.07Z"/>
    <path d="M162.24,451.73l19.97-20.9,2.34,2.24-3.12,27.19,15.07-15.77,2.88,2.75-19.97,20.9-2.31-2.21,3.12-27.24-15.1,15.8-2.88-2.75Z"/>
    <path d="M140.69,424.4l23.18-17.27,1.94,2.6-7.62,26.28,17.49-13.03,2.38,3.19-23.18,17.27-1.91-2.56,7.62-26.34-17.52,13.06-2.38-3.19Z"/>
    <path d="M135.15,415.16l-8.79-16.59,3.01-1.59,6.85,12.94,8.04-4.26-6.47-12.21,3.04-1.61,6.47,12.21,8.44-4.47-6.85-12.94,3.01-1.59,8.79,16.6-25.54,13.53Z"/>
    <path d="M118.01,378.05l-2.69-9.76c-1.24-4.51-.99-8.33.75-11.48,1.74-3.14,4.83-5.33,9.25-6.54s8.2-.92,11.32.88c3.12,1.81,5.3,4.96,6.54,9.47l2.69,9.76-27.87,7.67ZM139.85,361.79c-1.89-6.85-6.35-9.31-13.38-7.37-7.01,1.93-9.57,6.32-7.69,13.17l1.5,5.46,21.07-5.8-1.5-5.46Z"/>
    <path d="M109.87,344.39l-2.16-18.65,3.38-.39,1.68,14.54,9.04-1.04-1.59-13.73,3.42-.4,1.59,13.73,9.49-1.1-1.68-14.54,3.38-.39,2.16,18.65-28.71,3.32Z"/>
    <path d="M135.76,314.59c-.64,1.86-1.56,3.45-2.76,4.76l-3.09-1.58c1.18-1.4,2.03-2.85,2.57-4.36.54-1.51.82-3.2.86-5.09.04-2.16-.33-3.83-1.11-5.02-.78-1.19-1.91-1.8-3.39-1.83-1.26-.03-2.2.5-2.84,1.58-.64,1.08-1.25,2.82-1.85,5.21-.54,2.29-1.13,4.16-1.79,5.62-.66,1.46-1.53,2.6-2.63,3.41-1.1.81-2.48,1.2-4.14,1.17-1.69-.03-3.17-.51-4.44-1.42-1.27-.91-2.25-2.2-2.94-3.85-.69-1.65-1.02-3.56-.97-5.72.04-2.02.39-3.92,1.04-5.7s1.56-3.23,2.73-4.35l3.09,1.54c-1.12,1.32-1.96,2.67-2.52,4.07-.56,1.4-.86,2.89-.89,4.47-.04,2.08.36,3.72,1.19,4.92.84,1.21,2.02,1.82,3.55,1.85,1.31.03,2.31-.47,3-1.5.69-1.03,1.33-2.68,1.92-4.96.59-2.39,1.2-4.33,1.82-5.81.62-1.48,1.45-2.65,2.49-3.52,1.04-.87,2.38-1.29,4.02-1.25,1.67.03,3.12.51,4.36,1.42s2.18,2.2,2.83,3.87c.65,1.67.95,3.63.91,5.9-.04,2.24-.39,4.29-1.02,6.15Z"/>
    <path d="M108.8,288.75l.52-4.19,28.69,3.53-.52,4.19-28.69-3.53Z"/>
    <path d="M129.27,255.14l13.23,3.21c.32,1.34.44,2.96.36,4.86-.08,1.89-.34,3.77-.8,5.63-.69,2.84-1.86,5.16-3.5,6.96-1.64,1.79-3.67,2.98-6.09,3.54-2.42.57-5.12.49-8.13-.24-2.95-.71-5.37-1.88-7.27-3.49-1.9-1.61-3.18-3.58-3.83-5.88-.65-2.31-.64-4.84.03-7.61.48-1.99,1.22-3.75,2.21-5.29.99-1.53,2.18-2.75,3.58-3.65l2.67,2.21c-1.41,1.06-2.51,2.19-3.31,3.37-.79,1.19-1.38,2.56-1.76,4.13-.73,3.03-.36,5.57,1.12,7.63,1.48,2.06,4,3.52,7.56,4.39,3.64.88,6.59.73,8.87-.47,2.27-1.19,3.79-3.37,4.56-6.53.5-2.07.69-4.19.57-6.36l-7.89-1.91-1.58,6.54-3.11-.75,2.49-10.28Z"/>
    <path d="M128.95,219.88l26.53,11.48-1.29,2.97-26.58,6.5,20.02,8.66-1.58,3.65-26.53-11.48,1.27-2.94,26.63-6.52-20.06-8.68,1.58-3.65Z"/>
  </g>
</svg>